<svg xmlns="http://www.w3.org/2000/svg" version="1.1" xmlns:xlink="http://www.w3.org/1999/xlink" xmlns:svgjs="http://svgjs.dev/svgjs" width="150" height="150"><svg width="150" height="150" viewBox="0 0 150 150" fill="none" xmlns="http://www.w3.org/2000/svg">
<rect width="150" height="150" rx="20" fill="white"></rect>
<path d="M105.001 40.359C105.001 34.8361 109.478 30.359 115.001 30.359C120.524 30.359 125.001 34.8361 125.001 40.359C125.001 45.8818 120.524 50.359 115.001 50.359C109.478 50.359 105.001 45.8818 105.001 40.359Z" fill="black"></path>
<path d="M123.661 45.359L83.6611 114.641L66.3406 104.641L106.341 35.359L123.661 45.359Z" fill="black"></path>
<path d="M70.0008 100.981C74.7838 98.2193 80.8997 99.8581 83.6611 104.641C86.4225 109.424 84.7838 115.54 80.0008 118.301C75.2179 121.063 69.102 119.424 66.3406 114.641C63.5792 109.858 65.2179 103.742 70.0008 100.981Z" fill="black"></path>
<path d="M30.0008 31.6987C34.7838 28.9373 40.8997 30.576 43.6611 35.359C46.4225 40.1419 44.7838 46.2578 40.0008 49.0192C35.2179 51.7806 29.102 50.1419 26.3406 45.359C23.5792 40.576 25.2179 34.4601 30.0008 31.6987Z" fill="black"></path>
<path d="M66.3406 114.641L26.3406 45.359L43.6611 35.359L83.6611 104.641L66.3406 114.641Z" fill="black"></path>
<path d="M84.9992 40.3573C84.9992 45.8801 80.522 50.3573 74.9992 50.3573C69.4763 50.3573 64.9992 45.8801 64.9992 40.3573C64.9992 34.8345 69.4763 30.3573 74.9992 30.3573C80.522 30.3573 84.9992 34.8345 84.9992 40.3573Z" fill="black"></path>
</svg><style>@media (prefers-color-scheme: light) { :root { filter: none; } }
@media (prefers-color-scheme: dark) { :root { filter: none; } }
</style></svg>