<svg width="340" height="124" viewBox="0 0 340 124" fill="none" xmlns="http://www.w3.org/2000/svg">
<path d="M20 79.2837C20 84.8065 15.5228 89.2837 10 89.2837C4.47715 89.2837 0 84.8065 0 79.2837C0 73.7608 4.47715 69.2837 10 69.2837C15.5228 69.2837 20 73.7608 20 79.2837Z" fill="black"/>
<path d="M10 69.2837H90V89.2837H10V69.2837Z" fill="black"/>
<path d="M1.33974 74.2837L41.3397 5.00167L58.6603 15.0017L18.6603 84.2837L1.33974 74.2837Z" fill="black"/>
<path d="M55 18.6619C50.2171 21.4233 44.1012 19.7846 41.3397 15.0017C38.5783 10.2187 40.2171 4.10284 45 1.34142C49.7829 -1.42001 55.8988 0.218743 58.6603 5.00167C61.4217 9.7846 59.7829 15.9005 55 18.6619Z" fill="black"/>
<path d="M95 87.944C90.2171 90.7054 84.1012 89.0666 81.3397 84.2837C78.5783 79.5008 80.2171 73.3849 85 70.6234C89.7829 67.862 95.8988 69.5008 98.6602 74.2837C101.422 79.0666 99.7829 85.1825 95 87.944Z" fill="black"/>
<path d="M58.6603 5.00167L98.6602 74.2837L81.3397 84.2837L41.3397 15.0017L58.6603 5.00167Z" fill="black"/>
<path d="M178.66 15.0017L138.66 84.2837L121.34 74.2837L161.34 5.00167L178.66 15.0017Z" fill="black"/>
<path d="M125 70.6234C129.783 67.862 135.899 69.5008 138.66 74.2837C141.422 79.0666 139.783 85.1825 135 87.944C130.217 90.7054 124.101 89.0666 121.34 84.2837C118.578 79.5008 120.217 73.3849 125 70.6234Z" fill="black"/>
<path d="M160 10.0017C160 4.47883 164.477 0.00167271 170 0.00167271C175.523 0.00167271 180 4.47883 180 10.0017C180 15.5245 175.523 20.0017 170 20.0017C164.477 20.0017 160 15.5245 160 10.0017Z" fill="black"/>
<path d="M170 20.0017H90V0.00167271H170V20.0017Z" fill="black"/>
<path d="M80 10.0017C80 4.47882 84.4771 0.00167271 90 0.00167271C95.5228 0.00167271 100 4.47882 100 10.0017C100 15.5245 95.5228 20.0017 90 20.0017C84.4771 20.0017 80 15.5245 80 10.0017Z" fill="black"/>
<path d="M165 18.6619C160.217 15.9005 158.578 9.78459 161.34 5.00167C164.101 0.218739 170.217 -1.42001 175 1.34142C179.783 4.10284 181.422 10.2187 178.66 15.0017C175.899 19.7846 169.783 21.4233 165 18.6619Z" fill="black"/>
<path d="M178.66 15.0017L138.66 84.2837L121.34 74.2837L161.34 5.00167L178.66 15.0017Z" fill="black"/>
<path d="M138.66 84.2837L118.66 118.925L101.34 108.925L121.34 74.2837L138.66 84.2837Z" fill="black"/>
<path d="M125 87.944C120.217 85.1825 118.578 79.0666 121.34 74.2837C124.101 69.5008 130.217 67.862 135 70.6234C139.783 73.3849 141.422 79.5008 138.66 84.2837C135.899 89.0666 129.783 90.7054 125 87.944Z" fill="black"/>
<path d="M105 122.585C100.217 119.824 98.5783 113.708 101.34 108.925C104.101 104.142 110.217 102.503 115 105.264C119.783 108.026 121.422 114.142 118.66 118.925C115.899 123.708 109.783 125.346 105 122.585Z" fill="black"/>
<path d="M121.34 84.2837L81.3397 15.0017L98.6602 5.00167L138.66 74.2837L121.34 84.2837Z" fill="black"/>
<path d="M180 79.2837C180 84.8065 175.523 89.2837 170 89.2837C164.477 89.2837 160 84.8065 160 79.2837C160 73.7608 164.477 69.2837 170 69.2837C175.523 69.2837 180 73.7608 180 79.2837Z" fill="black"/>
<path d="M170 69.2837H250V89.2837H170V69.2837Z" fill="black"/>
<path d="M161.34 74.2837L201.34 5.00167L218.66 15.0017L178.66 84.2837L161.34 74.2837Z" fill="black"/>
<path d="M215 18.6619C210.217 21.4233 204.101 19.7846 201.34 15.0017C198.578 10.2187 200.217 4.10284 205 1.34142C209.783 -1.42001 215.899 0.218743 218.66 5.00167C221.422 9.7846 219.783 15.9005 215 18.6619Z" fill="black"/>
<path d="M255 87.944C250.217 90.7054 244.101 89.0666 241.34 84.2837C238.578 79.5008 240.217 73.3849 245 70.6234C249.783 67.862 255.899 69.5008 258.66 74.2837C261.422 79.0666 259.783 85.1825 255 87.944Z" fill="black"/>
<path d="M218.66 5.00167L258.66 74.2837L241.34 84.2837L201.34 15.0017L218.66 5.00167Z" fill="black"/>
<path d="M320.002 10.0017C320.002 4.47883 324.479 0.00167842 330.002 0.00167842C335.525 0.00167842 340.002 4.47883 340.002 10.0017C340.002 15.5245 335.525 20.0017 330.002 20.0017C324.479 20.0017 320.002 15.5245 320.002 10.0017Z" fill="black"/>
<path d="M338.662 15.0017L298.662 84.2837L281.341 74.2837L321.341 5.00167L338.662 15.0017Z" fill="black"/>
<path d="M285.002 70.6234C289.785 67.862 295.9 69.5008 298.662 74.2837C301.423 79.0666 299.785 85.1825 295.002 87.944C290.219 90.7054 284.103 89.0666 281.341 84.2837C278.58 79.5008 280.219 73.3849 285.002 70.6234Z" fill="black"/>
<path d="M245.002 1.34142C249.785 -1.42001 255.901 0.218745 258.662 5.00167C261.423 9.7846 259.785 15.9005 255.002 18.6619C250.219 21.4233 244.103 19.7846 241.341 15.0017C238.58 10.2187 240.219 4.10284 245.002 1.34142Z" fill="black"/>
<path d="M281.341 84.2837L241.341 15.0017L258.662 5.00167L298.662 74.2837L281.341 84.2837Z" fill="black"/>
<circle cx="290" cy="10" r="10" fill="black"/>
</svg>
